<svg width="150" height="150" viewBox="0 0 150 150" fill="none" xmlns="http://www.w3.org/2000/svg">
<rect width="150" height="150" rx="75" fill="black"/>
<path d="M90.2176 97.1515C72.826 106.551 63.2605 117.691 63.2605 117.691L63.7407 97.9972C90.093 80.9021 93.522 55.8976 93.522 55.8976C87.9567 60.9454 66.7388 65.2972 66.7388 65.2972L82.0436 63.5565C78.9898 76.8718 65.9757 85.2297 65.9757 85.2297C60.5843 75.656 49.869 51.1977 49.869 51.1977C56.9996 47.5423 70.2172 32.7466 70.2172 32.7466C74.7391 33.0947 89.6959 31.1799 89.6959 31.1799C95.7829 43.3647 112.131 55.8976 112.131 55.8976C104.827 65.9934 90.2176 97.1515 90.2176 97.1515ZM94.5696 17C75.665 21.295 64.647 17.8125 64.647 17.8125C48.1779 42.8859 36 44.0466 36 44.0466C41.3351 55.6545 60.7037 89.2018 60.7037 89.2018L53.165 95.9343L53.2809 139C71.2578 112.418 94.8015 101.854 94.8015 101.854C96.6573 88.7374 126 49.3862 126 49.3862C104.66 43.234 94.5696 17 94.5696 17Z" fill="white"/>
</svg>
