<svg width="150" height="150" viewBox="0 0 150 150" fill="none" xmlns="http://www.w3.org/2000/svg">
<path d="M85.8683 98.5469C64.4187 110.104 52.6213 123.801 52.6213 123.801L53.2135 99.5867C85.7147 78.5682 89.9438 47.8249 89.9438 47.8249C83.0799 54.0313 56.9112 59.3818 56.9112 59.3818L75.7871 57.2416C72.0208 73.6128 55.97 83.8889 55.97 83.8889C49.3206 72.118 36.1051 42.0464 36.1051 42.0464C44.8995 37.552 61.2012 19.3605 61.2012 19.3605C66.7782 19.7885 85.2249 17.4344 85.2249 17.4344C92.7322 32.4156 112.895 47.8249 112.895 47.8249C103.886 60.2378 85.8683 98.5469 85.8683 98.5469ZM91.2359 -1.31085e-06C67.9202 5.28069 54.3313 0.998935 54.3313 0.998935C34.0195 31.8269 19 33.254 19 33.254C25.58 47.5261 49.4679 88.7727 49.4679 88.7727L40.1701 97.0503L40.3132 150C62.4846 117.317 91.5218 104.329 91.5218 104.329C93.8106 88.2017 130 39.8191 130 39.8191C103.68 32.2549 91.2359 -1.31085e-06 91.2359 -1.31085e-06Z" fill="black"/>
</svg>
